#!OML:ASF F:\VICON\USERDATA\INSTALL\rory3\rory3.ASF
:FULLY-SPECIFIED
:DEGREES
1
root -0.919540999999999 17.2067 -32.30619999999996 6.0100900000000035 -2.1114799999999923 -6.517110000000008
lfemur -25.867799999999974 7.1891499999999855 -10.752500000000007
ltibia 104.04900000000008
lfoot 7.526900000000015 -13.787399999999986
ltoes 0.3751349999999807
rfemur -22.146600000000007 3.9586899999999963 34.871500000000005
rtibia 48.91779999999997
rfoot -22.27260000000006 -18.484600000000018
rtoes -5.583340000000003
lowerback nan 0.362027999999999 3.1754999999999978
upperback 0.4907119999999967 1.4043400000000001 3.1136000000000017
thorax -9.2274 0.6066179999999999 1.2207300000000008
lowerneck -21.859900000000003 -3.158840000000001 -1.3040799999999986
upperneck 12.282200000000003 -4.181429999999999 1.76461
head 7.38848 -1.8849400000000003 0.27283199999999985
lclavicle 6.460500000000056e-16 -1.7890600000000082e-15
lhumerus -52.4405 -11.167900000000001 98.1635
lradius 97.59629999999999
lwrist 29.294700000000002
lhand -25.8077 2.8378000000000014
lfingers nan
lthumb 0.7315109999999989 32.8163
rclavicle 6.460500000000056e-16 -1.7890600000000082e-15
rhumerus -37.91549999999998 10.290999999999999 -93.6859
rradius 101.15800000000002
rwrist -7.893620000000003
rhand -21.343200000000003 nan
rfingers nan
rthumb 5.042970000000006 9.8436
2
root -0.9318050000000005 17.3244 -31.331799999999973 5.5719699999999985 -0.48884600000000267 -6.663809999999998
lfemur -30.741700000000005 6.464120000000015 -10.839500000000019
ltibia 103.34599999999992
lfoot 6.3586600000000155 -12.346199999999996
ltoes 3.695250000000023
rfemur -17.293100000000006 2.8147799999999985 35.17220000000001
rtibia 47.04809999999996
rfoot -21.21789999999998 -18.620699999999985
rtoes -9.811899999999982
lowerback nan 0.4099570000000006 3.334389999999997
upperback -0.10616299999999801 1.6017000000000001 3.4917100000000034
thorax -10.1928 0.69323 1.4985200000000005
lowerneck -20.1212 -3.60679 -2.10422
upperneck 12.4517 -4.57305 1.67118
head 7.1817 -2.1335 0.3448560000000002
lclavicle -6.261719999999992e-15 1.1927100000000004e-15
lhumerus -55.9034 -11.191299999999996 99.5954
lradius 99.38170000000001
lwrist 30.604999999999997
lhand -26.364799999999995 3.0741800000000006
lfingers nan
lthumb 0.1933859999999985 33.0538
rclavicle -6.261719999999992e-15 1.1927100000000004e-15
rhumerus -38.57429999999998 10.7365 -93.765
rradius 104.983
rwrist -11.383400000000002
rhand -22.007599999999993 nan
rfingers nan
rthumb 4.40145 10.2259
3
root -0.9290820000000007 17.4997 -30.321600000000004 5.286070000000002 0.2593830000000008 -7.012289999999997
lfemur -34.54020000000001 6.248970000000003 -11.123299999999984
ltibia 100.7700000000001
lfoot 4.13552 -10.758099999999992
ltoes -2.9559499999999908
rfemur -12.3615 2.6397600000000025 35.46560000000001
rtibia 44.9846
rfoot -19.016899999999993 -17.16920000000003
rtoes -13.724600000000024
lowerback nan 0.9455080000000002 4.187220000000002
upperback -0.8950729999999999 2.5245499999999987 3.2288000000000014
thorax -11.152699999999996 1.0564099999999994 0.48508300000000043
lowerneck -18.114300000000004 -4.074290000000001 -1.7175599999999998
upperneck 12.450899999999999 -5.301239999999999 1.3894200000000017
head 6.843820000000001 -2.5061400000000003 0.14235900000000057
lclavicle -1.1777999999999987e-14 -5.9635399999999975e-15
lhumerus -59.62220000000001 -12.210799999999999 100.33
lradius 100.84099999999998
lwrist 31.643700000000003
lhand -25.2105 2.54638
lfingers nan
lthumb 1.3082300000000004 32.5221
rclavicle -1.1777999999999987e-14 -5.9635399999999975e-15
rhumerus -40.07089999999998 9.603310000000002 -94.2449
rradius 109.102
rwrist -12.476099999999999
rhand -20.173599999999997 nan
rfingers nan
rthumb 6.172240000000006 9.94042
4
root -0.8917090000000001 17.7129 -29.236499999999992 5.439140000000002 -0.2494600000000019 -7.2864600000000035
lfemur -36.76319999999996 6.873550000000006 -11.887400000000023
ltibia 96.27429999999998
lfoot -0.9779200000000008 -8.212790000000002
ltoes -14.590399999999999
rfemur -7.8174399999999835 3.2997299999999967 35.305800000000005
rtibia 42.61139999999999
rfoot -14.866199999999997 -14.669800000000023
rtoes -18.336199999999984
lowerback nan 1.7602199999999981 4.8316199999999965
upperback -0.6219950000000005 3.580560000000001 3.1084200000000015
thorax -9.75942 1.5522100000000014 -0.23176299999999894
lowerneck -18.9189 -4.441859999999998 -1.95078
upperneck 13.1804 -5.742649999999998 1.415609999999998
head 7.230459999999999 -2.714750000000001 0.11159200000000113
lclavicle 1.913300000000001e-14 3.379339999999999e-14
lhumerus -61.3011 -11.805999999999997 100.389
lradius 101.96000000000001
lwrist 31.841099999999997
lhand -27.5994 1.6659900000000003
lfingers nan
lthumb -0.9990539999999981 31.6434
rclavicle 1.913300000000001e-14 3.379339999999999e-14
rhumerus -39.09659999999998 10.0531 -94.1854
rradius 111.785
rwrist -12.709000000000005
rhand -20.990399999999994 nan
rfingers nan
rthumb 5.38361 11.0372
5
root -0.865733999999999 17.9847 -28.1798000000001 4.971799999999998 0.8585100000000001 -7.071379999999994
lfemur -38.34460000000003 5.4435699999999905 -13.138600000000013
ltibia 90.00430000000003
lfoot 0.7176159999999994 -6.813020000000001
ltoes -4.3523699999999925
rfemur -3.3095100000000244 2.4629999999999983 34.71139999999999
rtibia 39.9151
rfoot -8.798329999999968 -11.239699999999988
rtoes -21.183899999999966
lowerback nan 1.7412500000000009 5.052180000000007
upperback -1.12981 3.648479999999997 3.098240000000002
thorax -10.4276 1.5503699999999991 -0.3951659999999989
lowerneck -18.188500000000005 -4.61103 -2.495180000000001
upperneck 14.1129 -5.866100000000001 1.409940000000003
head 7.43348 -2.8029599999999992 0.1851150000000008
lclavicle -1.0883500000000003e-14 -7.951389999999993e-15
lhumerus -63.69410000000002 -9.768539999999998 100.183
lradius 102.927
lwrist 32.6875
lhand -26.1355 -0.373626
lfingers nan
lthumb 0.414922000000002 29.605700000000002
rclavicle -1.0883500000000003e-14 -7.951389999999993e-15
rhumerus -39.978899999999996 11.1714 -94.2672
rradius 114.212
rwrist -11.502900000000002
rhand -20.314299999999992 nan
rfingers nan
rthumb 6.036329999999998 10.994000000000002
6
root -0.836922000000001 18.2115 -27.114599999999946 4.440759999999999 1.9078800000000022 -6.850119999999995
lfemur -39.00479999999997 3.945579999999994 -14.256199999999993
ltibia 82.67659999999994
lfoot -1.5653999999999968 -4.8271999999999995
ltoes -9.088050000000003
rfemur 0.8283859999999628 1.51529 33.98459999999999
rtibia 36.973799999999976
rfoot 0.04202649999999153 -8.36682
rtoes -20.21760000000004
lowerback nan 1.7965699999999991 5.371309999999991
upperback -1.655799999999999 3.7791200000000034 2.8456799999999984
thorax -10.855 1.5680700000000014 -0.8790570000000039
lowerneck -16.391099999999998 -4.685639999999999 -2.30854
upperneck 14.1149 -6.062190000000001 1.4159399999999969
head 7.127230000000001 -2.9015800000000014 0.17561400000000027
lclavicle 7.702909999999995e-15 3.8961799999999965e-14
lhumerus -66.13549999999998 -7.959179999999985 99.2909
lradius 103.34299999999999
lwrist 34.2542
lhand -25.176 0.7869699999999997
lfingers nan
lthumb 1.3415599999999999 30.7625
rclavicle 7.702909999999995e-15 3.8961799999999965e-14
rhumerus -40.88029999999999 12.014999999999997 -94.7807
rradius 115.47800000000001
rwrist -10.3831
rhand -19.996900000000004 nan
rfingers nan
rthumb 6.342819999999995 11.649500000000002
